<?xml version="1.0" standalone="no"?>
<!DOCTYPE svg PUBLIC "-//W3C//DTD SVG 20010904//EN"
 "http://www.w3.org/TR/2001/REC-SVG-20010904/DTD/svg10.dtd">
<svg version="1.0" xmlns="http://www.w3.org/2000/svg"
 width="500.000000pt" height="500.000000pt" viewBox="0 0 500.000000 500.000000"
 preserveAspectRatio="xMidYMid meet">
<metadata>
Created by potrace 1.16, written by Peter Selinger 2001-2019
</metadata>
<g transform="translate(0.000000,500.000000) scale(0.100000,-0.100000)"
fill="#000000" stroke="none">
<path d="M0 2500 l0 -2500 2500 0 2500 0 0 2500 0 2500 -2500 0 -2500 0 0
-2500z m2688 2388 l65 -12 22 -50 c12 -28 28 -74 35 -102 12 -46 18 -54 56
-72 l42 -21 101 36 100 36 61 -53 c68 -58 67 -56 33 -198 -15 -63 -15 -63 11
-102 14 -22 36 -42 49 -44 12 -2 59 -12 104 -22 l82 -17 25 -75 26 -75 -56
-68 c-30 -37 -61 -73 -69 -79 -9 -7 -15 -30 -15 -54 0 -39 5 -45 82 -117 l82
-75 -14 -79 -15 -79 -101 -34 c-96 -32 -102 -35 -120 -74 l-20 -41 33 -96 c17
-53 32 -99 33 -103 0 -13 -104 -123 -115 -121 -5 0 -53 9 -106 18 l-95 17 -37
-23 c-28 -18 -38 -33 -42 -59 -3 -19 -14 -66 -23 -105 l-17 -70 -60 -22 c-33
-12 -69 -22 -80 -22 -12 -1 -51 27 -92 64 -68 62 -74 65 -121 65 -48 0 -52 -2
-85 -47 -20 -27 -51 -63 -70 -81 l-34 -33 -69 13 c-37 7 -75 19 -84 28 -12 12
-32 67 -66 177 -2 7 -23 23 -47 34 l-44 22 -64 -26 c-35 -14 -81 -28 -101 -32
-34 -7 -42 -3 -94 41 l-56 48 6 56 c4 30 13 78 20 105 12 48 12 51 -15 91 -26
38 -33 42 -81 48 -29 4 -75 12 -102 19 l-50 13 -24 73 c-29 86 -27 90 54 176
50 52 54 60 54 104 0 48 -1 49 -80 117 -89 77 -85 62 -59 186 10 46 11 46 77
71 37 13 82 28 100 32 26 5 38 16 54 49 l20 42 -31 88 c-17 48 -31 95 -31 105
0 9 23 42 50 74 57 63 45 61 186 30 l71 -15 40 26 c37 25 42 32 47 79 4 29 13
75 19 102 l13 50 75 26 74 26 41 -29 c23 -16 59 -47 80 -69 33 -34 44 -39 82
-39 38 0 48 5 75 37 118 137 104 129 205 111z m-1370 -2282 c35 -8 66 -16 69
-20 3 -3 20 -49 38 -102 31 -92 34 -97 72 -114 l40 -18 99 33 c109 37 98 39
178 -32 l48 -42 -21 -106 -21 -105 26 -40 c21 -31 33 -40 55 -40 16 0 62 -7
103 -16 l75 -17 25 -75 26 -75 -27 -36 c-14 -20 -46 -57 -71 -83 -43 -45 -45
-48 -39 -94 4 -38 11 -52 33 -68 16 -11 51 -42 79 -67 l49 -47 -12 -74 c-7
-40 -18 -78 -25 -85 -7 -6 -52 -25 -102 -41 -83 -27 -92 -33 -113 -70 -22 -40
-22 -40 -4 -83 11 -24 27 -70 36 -102 l17 -58 -53 -60 c-53 -59 -53 -59 -98
-53 -25 3 -71 12 -103 20 -55 14 -60 14 -93 -6 -39 -25 -54 -48 -54 -85 0 -14
-7 -55 -16 -90 l-16 -64 -76 -25 -75 -26 -46 37 c-25 20 -63 52 -83 71 -33 31
-41 34 -78 29 -36 -5 -51 -16 -114 -83 l-73 -79 -74 13 c-41 7 -79 19 -85 27
-6 8 -23 54 -39 103 -27 84 -31 91 -68 109 l-40 19 -99 -33 c-111 -37 -99 -39
-181 33 -32 28 -45 47 -42 60 2 10 12 58 20 105 l17 87 -24 36 c-17 26 -32 37
-58 42 -19 3 -67 12 -105 20 l-70 15 -27 76 -26 77 54 67 c30 37 61 70 69 73
11 4 15 21 15 59 0 51 -2 56 -38 80 -20 15 -57 46 -81 71 l-43 44 12 70 c7 39
16 75 19 79 7 11 101 48 158 63 36 9 47 18 64 52 l21 42 -20 50 c-12 28 -27
74 -36 103 l-14 51 54 60 c34 38 60 59 71 57 10 -2 57 -11 106 -20 l87 -18 40
27 c32 21 40 32 41 59 0 17 8 64 17 102 l17 70 75 26 75 26 56 -44 c31 -24 67
-55 79 -68 19 -20 34 -25 70 -25 46 0 48 1 114 80 38 44 75 80 84 80 10 -1 45
-7 80 -14z m2799 -3 c24 -3 47 -11 52 -17 6 -7 23 -52 40 -101 27 -83 33 -92
71 -113 l41 -24 52 21 c29 11 74 26 102 34 l50 14 58 -51 59 -51 -7 -55 c-3
-30 -13 -77 -21 -105 -14 -49 -14 -51 13 -89 26 -37 33 -40 103 -53 135 -23
131 -21 157 -98 13 -38 23 -74 23 -80 0 -6 -31 -45 -69 -86 -68 -74 -69 -76
-64 -120 5 -39 14 -52 85 -119 l79 -75 -16 -75 c-8 -41 -21 -78 -28 -82 -7 -4
-52 -20 -101 -35 -84 -27 -89 -30 -108 -69 l-20 -40 31 -91 c17 -50 31 -97 31
-104 0 -8 -23 -40 -51 -71 -57 -65 -55 -65 -197 -31 -62 15 -64 15 -100 -10
-36 -23 -38 -29 -55 -116 -9 -51 -21 -100 -26 -110 -5 -9 -42 -27 -81 -40
l-72 -23 -26 23 c-15 13 -50 46 -79 73 -51 48 -53 49 -100 43 -38 -6 -53 -13
-73 -39 -54 -71 -104 -118 -123 -118 -11 0 -48 5 -83 12 l-63 11 -25 62 c-13
33 -28 78 -31 99 -6 31 -14 40 -54 60 -43 22 -48 22 -81 8 -19 -8 -64 -23 -99
-33 l-65 -19 -55 49 c-55 48 -56 50 -54 100 1 28 9 76 17 108 14 54 14 58 -6
87 -31 45 -48 56 -87 57 -20 0 -63 8 -95 17 l-59 17 -24 70 c-28 83 -27 86 54
175 57 63 59 67 55 112 -4 43 -8 50 -55 87 -29 22 -64 53 -80 69 l-27 29 15
74 c9 41 22 79 31 85 8 7 54 24 101 40 80 26 86 30 105 69 l20 41 -31 91 c-17
50 -31 96 -31 103 0 7 23 39 51 71 56 65 44 63 186 32 l73 -16 38 26 c36 23
40 30 50 94 24 139 23 138 107 167 l75 25 58 -48 c31 -27 66 -58 76 -70 15
-16 31 -21 73 -21 29 0 53 4 53 9 0 5 30 41 67 81 61 66 69 71 97 66 17 -4 50
-9 73 -13z"/>
<path d="M2303 4536 c-141 -38 -223 -85 -328 -191 -74 -73 -99 -106 -133 -175
-52 -107 -73 -196 -73 -315 0 -331 212 -604 536 -690 70 -19 237 -22 310 -6
335 74 585 397 562 726 -8 108 -22 164 -67 260 -49 106 -113 189 -200 258
-126 100 -247 145 -415 153 -84 4 -114 1 -192 -20z m322 -41 c33 -9 98 -34
144 -56 68 -32 100 -55 165 -122 132 -133 185 -253 193 -437 5 -98 2 -127 -16
-195 -59 -218 -223 -391 -439 -463 -65 -22 -95 -26 -197 -26 -131 0 -195 13
-294 64 -141 71 -238 171 -307 315 -119 249 -68 541 131 740 89 90 167 136
285 172 92 27 245 31 335 8z"/>
<path d="M2330 4331 c-91 -29 -142 -61 -211 -130 -117 -118 -164 -256 -141
-415 47 -320 369 -514 667 -401 198 74 325 258 325 470 0 129 -51 252 -140
343 -65 66 -116 99 -200 129 -83 29 -217 31 -300 4z"/>
<path d="M924 2250 c-235 -61 -408 -225 -496 -469 -29 -79 -36 -280 -14 -376
35 -146 126 -290 246 -386 70 -56 199 -121 280 -140 71 -17 249 -17 320 0 79
19 226 92 289 144 229 191 314 499 215 781 -36 104 -79 171 -169 261 -94 95
-174 143 -299 179 -111 33 -262 35 -372 6z m340 -40 c119 -30 209 -82 301
-175 93 -92 145 -182 176 -302 90 -353 -124 -718 -476 -808 -77 -20 -253 -20
-330 0 -288 74 -495 343 -495 645 0 182 64 334 195 465 89 89 198 152 310 179
89 21 227 20 319 -4z"/>
<path d="M1005 2058 c-184 -35 -346 -192 -390 -380 -20 -85 -19 -140 5 -234
25 -98 68 -171 143 -240 202 -188 505 -178 697 22 146 152 179 364 86 559 -95
202 -320 315 -541 273z"/>
<path d="M3702 2250 c-228 -60 -421 -246 -492 -475 -12 -40 -24 -111 -27 -165
-19 -324 176 -608 492 -716 71 -25 95 -28 205 -28 140 0 198 13 315 71 176 86
302 233 361 418 121 380 -107 794 -492 895 -103 27 -260 27 -362 0z m332 -35
c234 -61 409 -224 483 -450 34 -103 38 -275 9 -370 -69 -230 -261 -419 -477
-470 -82 -19 -246 -19 -328 0 -145 34 -300 144 -384 273 -134 203 -153 438
-52 650 89 188 239 310 450 367 68 19 227 18 299 0z"/>
<path d="M3800 2060 c-105 -18 -203 -73 -280 -156 -93 -100 -130 -195 -130
-333 0 -112 25 -198 84 -283 88 -130 222 -206 377 -216 100 -5 167 8 253 49
311 153 374 571 120 808 -117 110 -271 157 -424 131z"/>
</g>
</svg>
